<?xml version="1.0" encoding="UTF-8"?>
<svg id="Layer_1" data-name="Layer 1" xmlns="http://www.w3.org/2000/svg" viewBox="0 0 220 224">
  <defs>
    <style>
      .cls-1 {
        fill: #e30613;
      }
    </style>
  </defs>
  <path class="cls-1" d="M110.95,221.96c-21.74,0-40.47-4.45-56.18-13.34s-27.72-21.54-36.02-37.95c-8.3-16.4-12.45-35.87-12.45-58.4s4.15-42.05,12.45-58.55c8.3-16.5,20.31-29.25,36.02-38.24C70.49,6.49,89.21,1.99,110.95,1.99s40.66,4.5,56.18,13.49c15.51,9,27.47,21.74,35.87,38.24,8.4,16.5,12.6,36.02,12.6,58.55s-4.2,42-12.6,58.4c-8.4,16.41-20.36,29.05-35.87,37.95-15.52,8.89-34.24,13.34-56.18,13.34ZM110.95,179.86c10.87,0,20.11-2.67,27.72-8,7.61-5.34,13.49-13.04,17.64-23.12,4.15-10.08,6.23-22.23,6.23-36.46s-2.08-26.43-6.23-36.61c-4.15-10.18-10.08-17.98-17.79-23.42-7.71-5.43-17-8.15-27.87-8.15s-19.86,2.72-27.57,8.15c-7.71,5.44-13.59,13.24-17.64,23.42-4.05,10.18-6.08,22.38-6.08,36.61s2.02,26.38,6.08,36.46c4.05,10.08,9.93,17.79,17.64,23.12,7.71,5.34,17,8,27.87,8Z"/>
</svg>